<svg xmlns="http://www.w3.org/2000/svg" xmlns:xlink="http://www.w3.org/1999/xlink" version="1.1" width="1080" height="1080" viewBox="0 0 1080 1080" xml:space="preserve">
<desc>Created with Fabric.js 5.2.4</desc>
<defs>
</defs>
<g transform="matrix(1 0 0 1 540 540)" id="ac7c2303-58e5-43de-b08e-221bbf0db188"  >
<rect style="stroke: none; stroke-width: 1; stroke-dasharray: none; stroke-linecap: butt; stroke-dashoffset: 0; stroke-linejoin: miter; stroke-miterlimit: 4; fill: rgb(255,255,255); fill-rule: nonzero; opacity: 1; visibility: hidden;" vector-effect="non-scaling-stroke"  x="-540" y="-540" rx="0" ry="0" width="1080" height="1080" />
</g>
<g transform="matrix(1 0 0 1 540 540)" id="60f6fe18-e321-4e82-88f4-27beb5a33a10"  >
</g>
<g transform="matrix(1 0 0 1 540 474.97)" id="3fedf4aa-2d45-423a-95b7-ebb663e61091"  >
<path style="stroke: rgb(0,0,0); stroke-width: 0; stroke-dasharray: none; stroke-linecap: butt; stroke-dashoffset: 0; stroke-linejoin: miter; stroke-miterlimit: 4; fill: rgb(0,0,0); fill-rule: nonzero; opacity: 1;" vector-effect="non-scaling-stroke"  transform=" translate(-128, -72.7)" d="M 72.2009141 1.42108547e-14 C 112.076502 1.42108547e-14 144.399375 32.5485469 144.399375 72.6964154 C 144.399375 112.844284 112.074049 145.390378 72.2009141 145.390378 C 32.327779 145.390378 0 112.844284 0 72.6964154 C 0 32.5485469 32.325326 1.42108547e-14 72.2009141 1.42108547e-14 Z M 187.500628 4.25836743 C 207.438422 4.25836743 223.601085 34.8960455 223.601085 72.6964154 L 223.603538 72.6964154 C 223.603538 110.486973 207.440875 141.134463 187.503081 141.134463 C 167.565287 141.134463 151.402624 110.486973 151.402624 72.6964154 C 151.402624 34.9058574 167.562834 4.25836743 187.500628 4.25836743 Z M 243.303393 11.3867175 C 250.314 11.3867175 256 38.835526 256 72.6964154 C 256 106.547493 250.316453 134.006113 243.303393 134.006113 C 236.290333 134.006113 230.609239 106.554852 230.609239 72.6964154 C 230.609239 38.837979 236.292786 11.3867175 243.303393 11.3867175 Z" stroke-linecap="round" />
</g>
</svg>
